<svg width="30" height="30" viewBox="0 0 30 30" fill="none" xmlns="http://www.w3.org/2000/svg">
<path d="M23.4364 12.137V11.2562C23.4364 6.42029 19.6593 2.5 15 2.5C10.3407 2.5 6.56359 6.42029 6.56359 11.2562V12.137C6.56359 13.194 6.26215 14.2272 5.69725 15.1067L4.31295 17.2619C3.04853 19.2304 4.01381 21.9061 6.21295 22.5286C11.9659 24.1571 18.0341 24.1571 23.787 22.5286C25.9863 21.9061 26.9515 19.2304 25.687 17.2619L24.3027 15.1067C23.7379 14.2272 23.4364 13.194 23.4364 12.137Z" stroke="#D9B504" stroke-width="2"/>
<path opacity="0.5" d="M9.375 23.75C10.1938 25.9347 12.4031 27.5 15 27.5C17.5969 27.5 19.8063 25.9347 20.625 23.75" stroke="#D9B504" stroke-width="2" stroke-linecap="round"/>
</svg>
