<svg width="45" height="45" viewBox="0 0 45 45" fill="none" xmlns="http://www.w3.org/2000/svg">
<path d="M7.51229 14.8745C7.37665 18.4523 8.28212 24.5282 14.3769 30.6231C15.8473 32.0934 17.3166 33.2618 18.75 34.1863M10.3834 9.25731C12.9952 6.64553 17.1622 6.99645 18.8205 9.96782L20.0374 12.1483C21.1356 14.1161 20.6948 16.6975 18.9651 18.4271C18.9651 18.4271 16.8673 20.5253 20.6709 24.3291C24.4734 28.1316 26.5729 26.0349 26.5729 26.0349C28.3026 24.3053 30.8839 23.8644 32.8517 24.9626L35.0321 26.1795C38.0036 27.8378 38.3544 32.0048 35.7428 34.6166C34.1734 36.186 32.2508 37.4072 30.1254 37.4876C28.5992 37.5456 26.6181 37.4139 24.375 36.7708" stroke="#2D2D2D" stroke-width="2" stroke-linecap="round"/>
<path d="M33.0469 20.7422C37.9009 20.7422 41.8359 16.8072 41.8359 11.9531C41.8359 7.09906 37.9009 3.16406 33.0469 3.16406C28.1928 3.16406 24.2578 7.09906 24.2578 11.9531C24.2578 13.3591 24.5879 14.6879 25.1749 15.8665C25.3309 16.1796 25.3828 16.5376 25.2924 16.8755L24.7689 18.8321C24.5417 19.6814 25.3187 20.4583 26.168 20.2311L28.1245 19.7076C28.4624 19.6172 28.8204 19.6691 29.1336 19.8251C30.312 20.4121 31.6409 20.7422 33.0469 20.7422Z" stroke="#CBA328" stroke-width="2"/>
<path opacity="0.5" d="M29.5312 11.9531H29.5392M33.039 11.9531H33.0469M36.5546 11.9531H36.5625" stroke="#CBA328" stroke-width="2" stroke-linecap="round" stroke-linejoin="round"/>
</svg>
