<svg width="40" height="40" viewBox="0 0 40 40" fill="none" xmlns="http://www.w3.org/2000/svg">
<g clip-path="url(#clip0_1002_1351)">
<path d="M19.5875 31.4125L20.3125 28.4625C23.825 29.125 26.4625 28.8625 27.575 25.6875C28.475 23.1375 27.5375 21.6625 25.6875 20.7C27.0375 20.3875 28.05 19.5 28.3125 17.675C28.6875 15.175 26.7875 13.8375 24.1875 12.9375L24.8875 10.125M15.8875 30.4875L16.6 27.5625C17.1625 27.7125 17.7125 27.85 18.2375 27.9875M18.4125 11.5C17.9625 11.4 14.2625 10.475 14.2625 10.475L13.7125 12.675C13.7125 12.675 15.2375 13.025 15.2125 13.05C16.05 13.2625 16.2 13.8125 16.175 14.25L13.8625 23.5125C13.7625 23.7625 13.5 24.15 12.925 24C12.95 24.025 11.425 23.625 11.425 23.625L10.4 25.9875C10.4 25.9875 14.0625 26.9125 14.55 27.0375M22.1375 12.3375C21.6 12.2 21.0375 12.075 20.4875 11.95L21.1625 9.19995M18.3875 20.5625C19.7875 20.9125 24.25 21.6 23.5875 24.2625C22.95 26.8125 18.65 25.4375 17.25 25.0875L17.875 22.575M19.9375 14.3875C21.1 14.675 24.8375 15.2125 24.2375 17.6375C23.6625 19.9625 20.075 18.775 18.9125 18.4875L19.4375 16.3875" stroke="#F0B90A" stroke-width="2" stroke-miterlimit="10" stroke-linecap="round" stroke-linejoin="round"/>
<path d="M20 38.125C30.0102 38.125 38.125 30.0102 38.125 20C38.125 9.98984 30.0102 1.875 20 1.875C9.98984 1.875 1.875 9.98984 1.875 20C1.875 30.0102 9.98984 38.125 20 38.125Z" stroke="#2B2B2B" stroke-width="2" stroke-miterlimit="10" stroke-linecap="round" stroke-linejoin="round"/>
</g>
<defs>
<clipPath id="clip0_1002_1351">
<rect width="40" height="40" fill="white"/>
</clipPath>
</defs>
</svg>
