<svg xmlns="http://www.w3.org/2000/svg" width="512" height="512" fill-rule="evenodd" clip-rule="evenodd" image-rendering="optimizeQuality" shape-rendering="geometricPrecision" text-rendering="geometricPrecision" viewBox="0 0 512 512" id="debit-card"><path fill="#fab303" fill-rule="nonzero" d="M92.9 172.45c-0.97,0.67 -2.14,1.06 -3.41,1.06 -3.31,0 -6,-2.69 -6,-6l0 -79.98c0,-7.22 2.95,-13.77 7.7,-18.52 4.74,-4.74 11.3,-7.69 18.51,-7.69l376.09 0c7.22,0 13.77,2.95 18.52,7.69 4.74,4.75 7.69,11.3 7.69,18.52l0 236.75c0,7.21 -2.95,13.77 -7.69,18.51 -0.13,0.13 -0.26,0.24 -0.39,0.35 -4.72,4.55 -11.12,7.35 -18.13,7.35l-63.28 0c-3.32,0 -6,-2.69 -6,-6 0,-2.66 1.73,-4.92 4.13,-5.7 -9.33,-5.51 -35.88,-12.98 -109.98,-16.62 -111.18,-5.47 -197.23,-120 -217.76,-149.72z"></path><path fill="#cb9103" fill-rule="nonzero" d="M92.9 172.45c-0.97,0.67 -2.14,1.06 -3.41,1.06 -3.31,0 -6,-2.69 -6,-6l0 -12 318.81 0c8.55,0 16.69,3.41 22.73,9.45l0.18 0.18c5.89,6.08 9.3,14.09 9.3,22.58l0 162.77 -12 0c-3.32,0 -6,-2.69 -6,-6 0,-2.66 1.73,-4.92 4.13,-5.7 -9.33,-5.51 -35.88,-12.98 -109.98,-16.62 -111.18,-5.47 -197.23,-120 -217.76,-149.72z"></path><polygon fill="#404a4c" fill-rule="nonzero" points="83.49 127.15 83.49 115.15 512 115.15 512 127.15"></polygon><path fill="#404a4c" fill-rule="nonzero" d="M512 152.42l0 12 -54.55 0c-3.31,0 -6,-2.69 -6,-6 0,-3.31 2.69,-6 6,-6l54.55 0z"></path><path fill="#fab303" fill-rule="nonzero" d="M26.21 161.51l376.09 0c7.19,0 13.74,2.95 18.49,7.69l0.02 0.03 0.05 0.05 0.04 0.04c4.69,4.74 7.61,11.25 7.61,18.4l0 236.75c0,7.2 -2.95,13.75 -7.7,18.5l-0.02 0.02 -0.05 0.05 -0.04 0.04c-4.74,4.69 -11.25,7.6 -18.4,7.6l-376.09 0c-7.2,0 -13.75,-2.95 -18.49,-7.69l-0.03 -0.02 -0.05 -0.06 -0.03 -0.03c-4.7,-4.74 -7.61,-11.26 -7.61,-18.41l0 -236.75c0,-7.2 2.95,-13.75 7.69,-18.49l0.03 -0.03 0.05 -0.05 0.04 -0.03c4.74,-4.7 11.25,-7.61 18.4,-7.61z"></path><polygon fill="#404a4c" fill-rule="nonzero" points="428.51 215.17 428.51 269.12 0 269.12 0 215.17"></polygon><path fill="#fffadd" fill-rule="nonzero" d="M34.64 399.74c-3.32 0-6-2.69-6-6 0-3.32 2.68-6 6-6l257.88 0c3.31 0 6 2.68 6 6 0 3.31-2.69 6-6 6l-257.88 0zM34.64 359.9c-3.32 0-6-2.69-6-6 0-3.31 2.68-6 6-6l257.88 0c3.31 0 6 2.69 6 6 0 3.31-2.69 6-6 6l-257.88 0zM34.64 320.07c-3.32 0-6-2.69-6-6 0-3.32 2.68-6 6-6l128.94 0c3.31 0 6 2.68 6 6 0 3.31-2.69 6-6 6l-128.94 0z"></path></svg>