<svg width="20" height="20" viewBox="0 0 20 20" fill="none" xmlns="http://www.w3.org/2000/svg">
<path d="M5.79638 8.26634C5.94271 8.47937 6.18739 8.60312 6.44436 8.60312C6.49486 8.60312 6.54584 8.59837 6.59662 8.58857C6.90581 8.52876 7.14757 8.29375 7.20903 7.9932L8.07734 3.7497C8.1176 3.55259 8.07583 3.348 7.96094 3.1809C7.84609 3.01381 7.66763 2.8979 7.46493 2.8587L3.09952 2.01462C2.7901 1.95475 2.47441 2.08202 2.29934 2.33682C2.12416 2.59163 2.12416 2.92395 2.29934 3.17876L3.77928 5.33176C2.62795 6.75503 2 8.50984 2 10.3351C2 13.557 3.96283 16.4725 7.00049 17.7627C7.10208 17.8059 7.20799 17.8263 7.31219 17.8263C7.61257 17.8263 7.89888 17.6565 8.02689 17.3718C8.19922 16.9883 8.01919 16.5416 7.62473 16.3741C5.15496 15.325 3.55906 12.9546 3.55906 10.3352C3.55906 9.02056 3.95988 7.75113 4.70185 6.67409L5.79638 8.26634Z" fill="#FFD95A"/>
<path d="M16.8913 15.3381C18.0422 13.9149 18.6701 12.1603 18.6701 10.3351C18.6701 7.11335 16.7072 4.19785 13.6696 2.90756C13.2751 2.74004 12.8156 2.91504 12.6432 3.29849C12.4708 3.68193 12.6508 4.12863 13.0453 4.29625C15.5151 5.34535 17.111 7.71575 17.111 10.3352C17.111 11.6496 16.7103 12.9189 15.9685 13.9958L14.8742 12.4038C14.699 12.149 14.3833 12.0217 14.074 12.0816C13.7648 12.1414 13.523 12.3764 13.4615 12.6769L12.5931 16.9204C12.5528 17.1175 12.5946 17.3222 12.7095 17.4892C12.8244 17.6563 13.0028 17.7722 13.2056 17.8114L17.5711 18.6554C17.6219 18.6652 17.6728 18.67 17.7233 18.67C17.7311 18.67 17.7389 18.6699 17.7467 18.6697C18.1667 18.6581 18.5037 18.3235 18.5037 17.9123C18.5037 17.7434 18.4468 17.5873 18.3507 17.4613L16.8913 15.3381Z" fill="#FFD95A"/>
</svg>
