<svg width="25" height="25" viewBox="0 0 25 25" fill="none" xmlns="http://www.w3.org/2000/svg">
<g clip-path="url(#clip0_659_1820)">
<path fill-rule="evenodd" clip-rule="evenodd" d="M12.7004 5.43979C16.8309 5.49838 20.1774 9.30463 21.875 12.4999C21.875 12.4999 21.3195 13.6296 20.7594 14.4121C20.4883 14.7906 20.2031 15.1593 19.9035 15.516C19.6899 15.7699 19.4692 16.0171 19.2402 16.2574C17.1945 18.4058 14.2567 20.0085 11.1543 19.3863C7.70782 18.6949 5.009 15.6761 3.31915 12.4999C3.31915 12.4999 3.80665 11.3421 4.36993 10.5609C4.62228 10.2105 4.88712 9.86947 5.16447 9.53862C5.37697 9.2851 5.59728 9.03783 5.82501 8.7976C7.63243 6.89291 9.95157 5.42651 12.7004 5.43979ZM12.686 7.00229C10.3852 6.99369 8.47189 8.27846 6.95822 9.87338C6.75236 10.0902 6.55392 10.3136 6.36173 10.5425C6.109 10.8441 5.86759 11.1554 5.63751 11.4746C5.42501 11.7695 5.22462 12.1796 5.07072 12.4863C6.54454 15.0128 8.69806 17.2999 11.4617 17.8542C14.0254 18.3687 16.418 16.9554 18.1086 15.18C18.3152 14.9632 18.5149 14.7394 18.7078 14.5101C18.9813 14.1847 19.2414 13.8484 19.4887 13.5027C19.7063 13.1988 19.9356 12.8124 20.109 12.4999C18.5688 9.89955 15.9485 7.05307 12.686 7.00229Z" fill="#D9B504"/>
<path fill-rule="evenodd" clip-rule="evenodd" d="M12.5617 9.35474C14.2902 9.35474 15.6938 10.7583 15.6938 12.4864C15.6938 14.2149 14.2902 15.618 12.5617 15.618C10.8336 15.618 9.43008 14.2149 9.43008 12.4864C9.43008 10.7583 10.8336 9.35474 12.5617 9.35474ZM12.5617 10.9208C13.4262 10.9208 14.1277 11.6223 14.1277 12.4864C14.1277 13.3508 13.4262 14.0524 12.5617 14.0524C11.6977 14.0524 10.9961 13.3508 10.9961 12.4864C10.9961 11.6223 11.6977 10.9208 12.5617 10.9208Z" fill="#D9B504"/>
</g>
<defs>
<clipPath id="clip0_659_1820">
<rect width="25" height="25" fill="white"/>
</clipPath>
</defs>
</svg>
