<svg width="25" height="25" viewBox="0 0 25 25" fill="none" xmlns="http://www.w3.org/2000/svg">
<g clip-path="url(#clip0_659_1239)">
<path fill-rule="evenodd" clip-rule="evenodd" d="M5.34099 4.04102L4.13123 5.25039L19.6988 20.8184L20.9086 19.6086L5.34099 4.04102Z" fill="#D9B504"/>
<path d="M6.68712 7.80635L7.82579 8.94502C6.57931 10.0064 5.58673 11.3274 4.94532 12.4833L4.94337 12.4872C6.7297 15.4739 9.56407 18.2966 13.1414 17.8685C14.107 17.7528 15.0078 17.4228 15.8309 16.9505L16.9836 18.1028C15.3793 19.1325 13.5402 19.6778 11.5477 19.4083C7.9547 18.9224 5.01681 15.9755 3.16486 12.5146C4.03439 10.7649 5.22384 9.09112 6.68712 7.80635ZM9.27697 6.11885C10.2817 5.67119 11.3688 5.40791 12.5297 5.38916C12.5942 5.38877 13.3594 5.4251 13.7063 5.48213C13.9238 5.51807 14.1406 5.56299 14.3543 5.61885C17.7625 6.50674 20.2875 9.54619 21.875 12.5146C21.209 13.8595 20.3367 15.0138 19.2965 16.1384L18.1922 15.0341C18.9606 14.206 19.607 13.4087 20.1004 12.5146C20.1004 12.5146 19.5984 11.5923 19.2223 11.0915C18.9805 10.7696 18.7262 10.4571 18.459 10.156C18.2481 9.91846 17.4289 9.11182 17.234 8.94385C15.9262 7.81924 14.3906 6.93682 12.5488 6.95166C11.8356 6.96299 11.1496 7.10362 10.4984 7.34034L9.27697 6.11885Z" fill="#D9B504"/>
<path fill-rule="evenodd" clip-rule="evenodd" d="M9.78674 10.9062L10.7239 11.8429C10.6625 12.0292 10.6289 12.2285 10.6289 12.4351C10.6289 13.4789 11.4762 14.3261 12.5199 14.3261C12.7266 14.3261 12.9258 14.2929 13.1121 14.2312L14.0492 15.1683C13.5969 15.4222 13.075 15.5667 12.5199 15.5667C10.7914 15.5667 9.38831 14.1636 9.38831 12.4351C9.38831 11.88 9.53323 11.3585 9.78674 10.9062ZM12.4621 9.30425C12.4813 9.30386 12.5008 9.30347 12.5199 9.30347C14.2485 9.30347 15.6516 10.707 15.6516 12.4351C15.6516 12.4546 15.6516 12.4738 15.6512 12.4929L12.4621 9.30425Z" fill="#D9B504"/>
</g>
<defs>
<clipPath id="clip0_659_1239">
<rect width="25" height="25" fill="white"/>
</clipPath>
</defs>
</svg>
