<svg width="46" height="45" viewBox="0 0 46 45" fill="none" xmlns="http://www.w3.org/2000/svg">
<path opacity="0.1" d="M8 23.4375V30C8 33.5355 8 35.3032 9.09836 36.4016C10.1967 37.5 11.9645 37.5 15.5 37.5H17.375H28.625H30.5C34.0355 37.5 35.8032 37.5 36.9016 36.4016C38 35.3032 38 33.5355 38 30V23.4375C38 22.9198 37.5802 22.5 37.0625 22.5H8.9375C8.41974 22.5 8 22.9198 8 23.4375Z" fill="#D9B504"/>
<path d="M6.125 17.8125C6.125 16.9413 6.125 16.5057 6.19706 16.1434C6.49295 14.6558 7.65582 13.493 9.14341 13.1971C9.50566 13.125 9.94126 13.125 10.8125 13.125H23H35.1875C36.0588 13.125 36.4944 13.125 36.8566 13.1971C38.3442 13.493 39.5071 14.6558 39.803 16.1434C39.875 16.5057 39.875 16.9413 39.875 17.8125C39.875 18.6837 39.875 19.1194 39.803 19.4816C39.5071 20.9692 38.3442 22.1321 36.8566 22.428C36.4944 22.5 36.0588 22.5 35.1875 22.5H23H10.8125C9.94126 22.5 9.50566 22.5 9.14341 22.428C7.65582 22.1321 6.49295 20.9692 6.19706 19.4816C6.125 19.1194 6.125 18.6837 6.125 17.8125Z" stroke="#2D2D2D" stroke-width="2" stroke-linejoin="round"/>
<path d="M8 22.5V30C8 33.5355 8 35.3032 9.09836 36.4016C10.1967 37.5 11.9645 37.5 15.5 37.5H17.375H28.625H30.5C34.0355 37.5 35.8032 37.5 36.9016 36.4016C38 35.3032 38 33.5355 38 30V22.5" stroke="#2D2D2D" stroke-width="2" stroke-linecap="round" stroke-linejoin="round"/>
<path d="M23 13.125V37.5" stroke="#2D2D2D" stroke-width="2" stroke-linecap="round" stroke-linejoin="round"/>
<path d="M21.8287 11.6609L18.1173 7.02162C16.7211 5.27635 14.1144 5.13557 12.534 6.71599C10.1716 9.07836 11.8374 13.125 15.1783 13.125H21.125C21.8806 13.125 22.3008 12.2509 21.8287 11.6609Z" stroke="#D9B504" stroke-width="2" stroke-linecap="round" stroke-linejoin="round"/>
<path d="M24.1713 11.6609L27.8827 7.02162C29.279 5.27635 31.8856 5.13557 33.4661 6.71599C35.8284 9.07836 34.1626 13.125 30.8217 13.125H24.875C24.1194 13.125 23.6992 12.2509 24.1713 11.6609Z" stroke="#2D2D2D" stroke-width="2" stroke-linecap="round" stroke-linejoin="round"/>
</svg>
