<svg width="45" height="45" viewBox="0 0 45 45" fill="none" xmlns="http://www.w3.org/2000/svg">
<path opacity="0.1" d="M7.5 23.4375V30C7.5 33.5355 7.5 35.3032 8.59836 36.4016C9.69669 37.5 11.4645 37.5 15 37.5H16.875H28.125H30C33.5355 37.5 35.3032 37.5 36.4016 36.4016C37.5 35.3032 37.5 33.5355 37.5 30V23.4375C37.5 22.9198 37.0802 22.5 36.5625 22.5H8.4375C7.91974 22.5 7.5 22.9198 7.5 23.4375Z" fill="#D9B504"/>
<path d="M5.625 17.8125C5.625 16.9413 5.625 16.5057 5.69706 16.1434C5.99295 14.6558 7.15582 13.493 8.64341 13.1971C9.00566 13.125 9.44126 13.125 10.3125 13.125H22.5H34.6875C35.5588 13.125 35.9944 13.125 36.3566 13.1971C37.8442 13.493 39.0071 14.6558 39.303 16.1434C39.375 16.5057 39.375 16.9413 39.375 17.8125C39.375 18.6837 39.375 19.1194 39.303 19.4816C39.0071 20.9692 37.8442 22.1321 36.3566 22.428C35.9944 22.5 35.5588 22.5 34.6875 22.5H22.5H10.3125C9.44126 22.5 9.00566 22.5 8.64341 22.428C7.15582 22.1321 5.99295 20.9692 5.69706 19.4816C5.625 19.1194 5.625 18.6837 5.625 17.8125Z" stroke="#D9B504" stroke-width="2" stroke-linejoin="round"/>
<path d="M7.5 22.5V30C7.5 33.5355 7.5 35.3032 8.59836 36.4016C9.69669 37.5 11.4645 37.5 15 37.5H16.875H28.125H30C33.5355 37.5 35.3032 37.5 36.4016 36.4016C37.5 35.3032 37.5 33.5355 37.5 30V22.5" stroke="#D9B504" stroke-width="2" stroke-linecap="round" stroke-linejoin="round"/>
<path d="M22.5 13.125V37.5" stroke="#D9B504" stroke-width="2" stroke-linecap="round" stroke-linejoin="round"/>
<path d="M21.3287 11.6608L17.6173 7.02153C16.2211 5.27626 13.6144 5.13548 12.034 6.7159C9.67164 9.07827 11.3374 13.1249 14.6783 13.1249H20.625C21.3806 13.1249 21.8008 12.2508 21.3287 11.6608Z" stroke="#D9B504" stroke-width="2" stroke-linecap="round" stroke-linejoin="round"/>
<path d="M23.6713 11.6608L27.3827 7.02153C28.779 5.27626 31.3856 5.13548 32.9661 6.7159C35.3284 9.07827 33.6626 13.1249 30.3217 13.1249H24.375C23.6194 13.1249 23.1992 12.2508 23.6713 11.6608Z" stroke="#D9B504" stroke-width="2" stroke-linecap="round" stroke-linejoin="round"/>
</svg>
