<svg width="20" height="20" viewBox="0 0 20 20" fill="none" xmlns="http://www.w3.org/2000/svg">
<g clip-path="url(#clip0_724_2026)">
<path d="M1.66666 13.3335C1.66666 10.9765 1.66666 9.798 2.39889 9.06575C3.13112 8.3335 4.30963 8.3335 6.66666 8.3335H13.3333C15.6903 8.3335 16.8688 8.3335 17.6011 9.06575C18.3333 9.798 18.3333 10.9765 18.3333 13.3335C18.3333 15.6905 18.3333 16.869 17.6011 17.6012C16.8688 18.3335 15.6903 18.3335 13.3333 18.3335H6.66666C4.30963 18.3335 3.13112 18.3335 2.39889 17.6012C1.66666 16.869 1.66666 15.6905 1.66666 13.3335Z" stroke="#D9B504" stroke-width="2"/>
<path opacity="0.5" d="M5 8.33342V6.66675C5 3.90532 7.23857 1.66675 10 1.66675C12.7614 1.66675 15 3.90532 15 6.66675V8.33342" stroke="#D9B504" stroke-width="2" stroke-linecap="round"/>
<g opacity="0.5">
<path d="M7.49998 13.3333C7.49998 13.7936 7.12688 14.1667 6.66665 14.1667C6.20641 14.1667 5.83331 13.7936 5.83331 13.3333C5.83331 12.8731 6.20641 12.5 6.66665 12.5C7.12688 12.5 7.49998 12.8731 7.49998 13.3333Z" fill="#D9B504"/>
<path d="M10.8333 13.3333C10.8333 13.7936 10.4602 14.1667 9.99999 14.1667C9.53974 14.1667 9.16666 13.7936 9.16666 13.3333C9.16666 12.8731 9.53974 12.5 9.99999 12.5C10.4602 12.5 10.8333 12.8731 10.8333 13.3333Z" fill="#D9B504"/>
<path d="M14.1666 13.3333C14.1666 13.7936 13.7936 14.1667 13.3333 14.1667C12.8731 14.1667 12.5 13.7936 12.5 13.3333C12.5 12.8731 12.8731 12.5 13.3333 12.5C13.7936 12.5 14.1666 12.8731 14.1666 13.3333Z" fill="#D9B504"/>
</g>
</g>
<defs>
<clipPath id="clip0_724_2026">
<rect width="20" height="20" fill="white"/>
</clipPath>
</defs>
</svg>
