<svg width="200" height="200" viewBox="0 0 200 200" fill="none" xmlns="http://www.w3.org/2000/svg">
<path opacity="0.4" d="M183.333 75V125C183.333 154.167 166.667 166.667 141.667 166.667H70.4168C73.3334 161.75 75 156.083 75 150C75 131.583 60.0833 116.667 41.6667 116.667C31.6667 116.667 22.75 121.083 16.6667 128V75C16.6667 45.8334 33.3333 33.3334 58.3333 33.3334H141.667C166.667 33.3334 183.333 45.8334 183.333 75Z" fill="#018A17"/>
<path d="M100 120.833C111.506 120.833 120.833 111.506 120.833 100C120.833 88.4942 111.506 79.1667 100 79.1667C88.4942 79.1667 79.1667 88.4942 79.1667 100C79.1667 111.506 88.4942 120.833 100 120.833Z" fill="#018A17"/>
<path d="M154.167 122.917C150.75 122.917 147.917 120.083 147.917 116.667V83.3334C147.917 79.9167 150.75 77.0834 154.167 77.0834C157.583 77.0834 160.417 79.9167 160.417 83.3334V116.667C160.417 120.083 157.583 122.917 154.167 122.917Z" fill="#018A17"/>
<path d="M41.6667 116.667C23.25 116.667 8.33334 131.583 8.33334 150C8.33334 156.25 10.0833 162.167 13.1666 167.167C18.9166 176.833 29.5 183.333 41.6667 183.333C53.8333 183.333 64.4167 176.833 70.1667 167.167C73.2501 162.167 75 156.25 75 150C75 131.583 60.0833 116.667 41.6667 116.667ZM58.0833 147.25L40.3333 163.667C39.1667 164.75 37.5833 165.333 36.0833 165.333C34.4999 165.333 32.9166 164.75 31.6666 163.5L23.4167 155.25C21 152.833 21 148.833 23.4167 146.417C25.8333 144 29.8333 144 32.25 146.417L36.2501 150.417L49.5834 138.083C52.0834 135.75 56.0834 135.917 58.4167 138.417C60.7501 140.917 60.5833 144.917 58.0833 147.25Z" fill="#018A17"/>
</svg>
