<svg width="200" height="200" viewBox="0 0 200 200" fill="none" xmlns="http://www.w3.org/2000/svg">
<path opacity="0.4" d="M183.333 75V125C183.333 154.167 166.667 166.667 141.667 166.667H70.4167C73.3334 161.75 75 156.083 75 150C75 131.583 60.0833 116.667 41.6666 116.667C31.6666 116.667 22.75 121.083 16.6666 128V75C16.6666 45.8334 33.3333 33.3334 58.3333 33.3334H141.667C166.667 33.3334 183.333 45.8334 183.333 75Z" fill="#EC0000"/>
<path d="M100 120.833C111.506 120.833 120.833 111.506 120.833 100C120.833 88.4942 111.506 79.1667 100 79.1667C88.4941 79.1667 79.1666 88.4942 79.1666 100C79.1666 111.506 88.4941 120.833 100 120.833Z" fill="#EC0000"/>
<path d="M154.167 122.917C150.75 122.917 147.917 120.083 147.917 116.667V83.3334C147.917 79.9167 150.75 77.0834 154.167 77.0834C157.583 77.0834 160.417 79.9167 160.417 83.3334V116.667C160.417 120.083 157.583 122.917 154.167 122.917Z" fill="#EC0000"/>
<path d="M41.6666 116.667C31.6666 116.667 22.75 121.083 16.6666 128C11.5 133.917 8.33331 141.583 8.33331 150C8.33331 156.25 10.0835 162.167 13.1668 167.167C18.9168 176.833 29.5 183.333 41.6666 183.333C50.0833 183.333 57.7501 180.25 63.5833 175C66.1666 172.833 68.4165 170.167 70.1665 167.167C73.2498 162.167 75 156.25 75 150C75 131.583 60.0833 116.667 41.6666 116.667ZM54.9998 163.167C53.7498 164.417 52.1667 165 50.5834 165C49.0001 165 47.4165 164.417 46.1665 163.167L41.7501 158.75L37.1668 163.333C35.9168 164.583 34.3332 165.167 32.7499 165.167C31.1666 165.167 29.5835 164.583 28.3335 163.333C25.9168 160.917 25.9168 156.917 28.3335 154.5L32.9167 149.917L28.4998 145.5C26.0831 143.083 26.0831 139.083 28.4998 136.667C30.9165 134.25 34.9165 134.25 37.3331 136.667L41.7501 141.083L45.9167 136.917C48.3334 134.5 52.3334 134.5 54.7501 136.917C57.1667 139.333 57.1667 143.333 54.7501 145.75L50.5834 149.917L54.9998 154.333C57.4165 156.75 57.4165 160.667 54.9998 163.167Z" fill="#EC0000"/>
</svg>
