<svg width="200" height="200" viewBox="0 0 200 200" fill="none" xmlns="http://www.w3.org/2000/svg">
<path d="M41.6667 116.667C23.25 116.667 8.33334 131.583 8.33334 150C8.33334 168.417 23.25 183.333 41.6667 183.333C60.0833 183.333 75 168.417 75 150C75 131.583 60.0833 116.667 41.6667 116.667ZM50 147.333C50 152.417 47.25 157.25 42.9167 159.833L36.5833 163.667C35.5833 164.333 34.4167 164.583 33.3333 164.583C31.25 164.583 29.1667 163.5 28 161.583C26.25 158.667 27.1667 154.75 30.1667 153L36.5 149.167C37.0833 148.833 37.5 148.083 37.5 147.417V139.667C37.5 136.167 40.3333 133.333 43.75 133.333C47.1667 133.333 50 136.167 50 139.583V147.333Z" fill="#FBC532"/>
<path d="M141.667 33.3334H58.3334C33.3334 33.3334 16.6667 45.8334 16.6667 75V104.667C16.6667 107.75 19.8334 109.667 22.5834 108.417C30.75 104.667 40.1667 103.25 50.0834 105C72 108.917 88.0834 129.25 87.5 151.5C87.4167 155 86.9167 158.417 86 161.75C85.3334 164.333 87.4167 166.75 90.0834 166.75H141.667C166.667 166.75 183.333 154.25 183.333 125.083V75C183.333 45.8334 166.667 33.3334 141.667 33.3334ZM100 120.833C88.5 120.833 79.1667 111.5 79.1667 100C79.1667 88.5 88.5 79.1667 100 79.1667C111.5 79.1667 120.833 88.5 120.833 100C120.833 111.5 111.5 120.833 100 120.833ZM160.417 116.667C160.417 120.083 157.583 122.917 154.167 122.917C150.75 122.917 147.917 120.083 147.917 116.667V83.3334C147.917 79.9167 150.75 77.0834 154.167 77.0834C157.583 77.0834 160.417 79.9167 160.417 83.3334V116.667Z" fill="#FBC532"/>
</svg>
