<svg width="45" height="45" viewBox="0 0 45 45" fill="none" xmlns="http://www.w3.org/2000/svg">
<path d="M37.5 26.25C37.5 33.321 37.5 36.8567 35.3033 39.0532C33.1067 41.25 29.571 41.25 22.5 41.25C15.4289 41.25 11.8934 41.25 9.69669 39.0532C7.5 36.8567 7.5 33.321 7.5 26.25V18.75C7.5 11.6789 7.5 8.14341 9.69669 5.94669C11.8934 3.75 15.4289 3.75 22.5 3.75C29.571 3.75 33.1067 3.75 35.3033 5.94669C37.5 8.14341 37.5 11.6789 37.5 18.75" stroke="#1C274C" stroke-width="2" stroke-linecap="round"/>
<path d="M28.125 35.625H16.875" stroke="#1C274C" stroke-width="2" stroke-linecap="round"/>
<g clip-path="url(#clip0_497_7257)">
<path d="M24.3469 32.8499C23.3609 32.8499 22.5599 32.0489 22.5599 31.0629C22.5599 30.0769 23.3609 29.2759 24.3469 29.2759H29.2371C29.2497 29.2759 29.2602 29.2654 29.2602 29.2527L29.2602 15.7471C29.2602 15.7345 29.2497 15.7239 29.2371 15.7239L24.3469 15.7239C23.3609 15.7239 22.5599 14.9229 22.5599 13.9369C22.5599 12.9509 23.3609 12.1499 24.3469 12.1499L29.2371 12.1499C31.2196 12.152 32.8342 13.7645 32.8342 15.7471V29.2527C32.8342 31.2353 31.2217 32.8499 29.2371 32.8499H24.3469Z" fill="#CBA328" fill-opacity="0.5"/>
<path d="M12.6893 27.4909C11.9913 26.7929 11.9913 25.6618 12.6893 24.9638C13.3873 24.2658 14.5183 24.2658 15.2163 24.9638L16.1876 25.9351V23.6603C16.1876 22.8215 16.3537 22.0079 16.6796 21.2363C16.9949 20.4963 17.4427 19.8319 18.0146 19.2601C18.5864 18.6882 19.2508 18.2404 19.9908 17.9251C20.7603 17.5992 21.576 17.4331 22.4128 17.4331H24.6644C25.6504 17.4331 26.4514 18.2341 26.4514 19.2201C26.4514 20.2061 25.6504 21.0071 24.6644 21.0071H22.4149C21.7106 21.0071 21.0462 21.2847 20.5416 21.7892C20.037 22.2938 19.7595 22.9582 19.7595 23.6624V25.9099L20.7035 24.9659C21.4015 24.2679 22.5326 24.2679 23.2306 24.9659C23.5796 25.3149 23.7541 25.7732 23.7541 26.2295C23.7541 26.6857 23.5795 27.144 23.2306 27.493L19.2213 31.5022C18.5233 32.2002 17.3923 32.2002 16.6943 31.5022L12.6893 27.4909Z" fill="#CBA328"/>
</g>
<defs>
<clipPath id="clip0_497_7257">
<rect width="20.7" height="20.7" fill="white" transform="matrix(0 1 1 0 12.15 12.1499)"/>
</clipPath>
</defs>
</svg>
