<svg width="45" height="45" viewBox="0 0 45 45" fill="none" xmlns="http://www.w3.org/2000/svg">
<path d="M37.5 26.25C37.5 33.321 37.5 36.8567 35.3033 39.0532C33.1067 41.25 29.571 41.25 22.5 41.25C15.4289 41.25 11.8934 41.25 9.69669 39.0532C7.5 36.8567 7.5 33.321 7.5 26.25V18.75C7.5 11.6789 7.5 8.14341 9.69669 5.94669C11.8934 3.75 15.4289 3.75 22.5 3.75C29.571 3.75 33.1067 3.75 35.3033 5.94669C37.5 8.14341 37.5 11.6789 37.5 18.75" stroke="#1C274C" stroke-width="2" stroke-linecap="round"/>
<path d="M28.125 35.625H16.875" stroke="#1C274C" stroke-width="2" stroke-linecap="round"/>
<g clip-path="url(#clip0_497_7296)">
<path d="M32.7857 24.3355C32.7857 23.3556 31.9897 22.5596 31.0098 22.5596C30.0299 22.5596 29.2339 23.3556 29.2339 24.3355V29.1953C29.2339 29.2078 29.2234 29.2182 29.2109 29.2182H15.7891C15.7766 29.2182 15.7661 29.2078 15.7661 29.1953V24.3355C15.7661 23.3556 14.9701 22.5596 13.9902 22.5596C13.0103 22.5596 12.2143 23.3556 12.2143 24.3355V29.1953C12.2164 31.1655 13.8189 32.7701 15.7891 32.7701H29.2109C31.1811 32.7701 32.7857 31.1676 32.7857 29.1953V24.3355Z" fill="#CBA328" fill-opacity="0.5"/>
<path d="M27.4601 12.7502C26.7664 12.0566 25.6423 12.0566 24.9487 12.7502C24.255 13.4439 24.255 14.5679 24.9487 15.2616L25.914 16.2268H23.6533C22.8197 16.2268 22.0111 16.3919 21.2443 16.7157C20.5089 17.0291 19.8486 17.4742 19.2804 18.0425C18.7121 18.6108 18.2671 19.271 17.9537 20.0064C17.6298 20.7711 17.4648 21.5818 17.4648 22.4133V24.651C17.4648 25.6308 18.2608 26.4269 19.2407 26.4269C20.2206 26.4269 21.0166 25.6308 21.0166 24.651V22.4154C21.0166 21.7155 21.2924 21.0552 21.7938 20.5538C22.2953 20.0524 22.9555 19.7766 23.6554 19.7766H25.8889L24.9508 20.7147C24.2571 21.4083 24.2571 22.5324 24.9508 23.226C25.2976 23.5729 25.7531 23.7463 26.2065 23.7463C26.6598 23.7463 27.1153 23.5728 27.4622 23.226L31.4465 19.2417C32.1401 18.5481 32.1401 17.424 31.4465 16.7304L27.4601 12.7502Z" fill="#CBA328"/>
</g>
<defs>
<clipPath id="clip0_497_7296">
<rect width="20.5714" height="20.5714" fill="white" transform="translate(12.2143 12.2144)"/>
</clipPath>
</defs>
</svg>
