<svg width="45" height="45" viewBox="0 0 45 45" fill="none" xmlns="http://www.w3.org/2000/svg">
<path opacity="0.5" d="M3.75 22.5C3.75 13.6612 3.75 9.24174 6.49588 6.49588C9.24174 3.75 13.6612 3.75 22.5 3.75C31.3388 3.75 35.7583 3.75 38.5041 6.49588C41.25 9.24174 41.25 13.6612 41.25 22.5" stroke="#D9B504" stroke-width="2"/>
<path d="M3.75 26.25C3.75 20.9994 3.75 18.3743 4.77182 16.3688C5.67062 14.6048 7.10483 13.1706 8.86884 12.2718C10.8743 11.25 13.4995 11.25 18.75 11.25H26.25C31.5006 11.25 34.1258 11.25 36.1313 12.2718C37.8953 13.1706 39.3294 14.6048 40.2281 16.3688C41.25 18.3743 41.25 20.9994 41.25 26.25C41.25 31.5006 41.25 34.1258 40.2281 36.1313C39.3294 37.8953 37.8953 39.3294 36.1313 40.2281C34.1258 41.25 31.5006 41.25 26.25 41.25H18.75C13.4995 41.25 10.8743 41.25 8.86884 40.2281C7.10483 39.3294 5.67062 37.8953 4.77182 36.1313C3.75 34.1258 3.75 31.5006 3.75 26.25Z" stroke="#2D2D2D" stroke-width="2"/>
<path d="M22.5 20.625V31.875M22.5 31.875L27.1875 27.1875M22.5 31.875L17.8125 27.1875" stroke="#D9B504" stroke-width="4" stroke-linecap="round" stroke-linejoin="round"/>
</svg>
